<?xml version="1.0" encoding="utf-8"?>
<svg version="1.1" xmlns:xlink="http://www.w3.org/1999/xlink" width="124px" height="38px" xmlns="http://www.w3.org/2000/svg">
  <defs>
    <mask fill="white" id="clip271">
      <path d="M 0 38  L 0 0  L 25.2597137014307 0  L 39.9836400817989 0  L 124 0  L 124 38  L 72.7034764826183 38  L 0 38  Z " fill-rule="evenodd" />
    </mask>
  </defs>
  <g transform="matrix(1 0 0 1 -109 -1290 )">
    <path d="M 0 38  L 0 0  L 25.2597137014307 0  L 39.9836400817989 0  L 124 0  L 124 38  L 72.7034764826183 38  L 0 38  Z " fill-rule="nonzero" fill="#ffffff" stroke="none" fill-opacity="0" transform="matrix(1 0 0 1 109 1290 )" />
    <path d="M 0 38  L 0 0  L 25.2597137014307 0  L 39.9836400817989 0  L 124 0  L 124 38  L 72.7034764826183 38  L 0 38  Z " stroke-width="2" stroke="#d7d7d7" fill="none" transform="matrix(1 0 0 1 109 1290 )" mask="url(#clip271)" />
  </g>
</svg>