<?xml version="1.0" encoding="utf-8"?>
<svg version="1.1" xmlns:xlink="http://www.w3.org/1999/xlink" width="137px" height="38px" xmlns="http://www.w3.org/2000/svg">
  <defs>
    <mask fill="white" id="clip273">
      <path d="M 0 38  L 0 0  L 27.9079094927098 0  L 44.175473316181 0  L 137 0  L 137 38  L 80.3256151461187 38  L 0 38  Z " fill-rule="evenodd" />
    </mask>
  </defs>
  <g transform="matrix(1 0 0 1 -378 -1507 )">
    <path d="M 0 38  L 0 0  L 27.9079094927098 0  L 44.175473316181 0  L 137 0  L 137 38  L 80.3256151461187 38  L 0 38  Z " fill-rule="nonzero" fill="#ffffff" stroke="none" fill-opacity="0" transform="matrix(1 0 0 1 378 1507 )" />
    <path d="M 0 38  L 0 0  L 27.9079094927098 0  L 44.175473316181 0  L 137 0  L 137 38  L 80.3256151461187 38  L 0 38  Z " stroke-width="2" stroke="#d7d7d7" fill="none" transform="matrix(1 0 0 1 378 1507 )" mask="url(#clip273)" />
  </g>
</svg>