<?xml version="1.0" encoding="utf-8"?>
<svg version="1.1" xmlns:xlink="http://www.w3.org/1999/xlink" width="150px" height="38px" xmlns="http://www.w3.org/2000/svg">
  <defs>
    <mask fill="white" id="clip274">
      <path d="M 0 38  L 0 0  L 30.5561052839888 0  L 48.3673065505631 0  L 150 0  L 150 38  L 87.947753809619 38  L 0 38  Z " fill-rule="evenodd" />
    </mask>
  </defs>
  <g transform="matrix(1 0 0 1 -94 -1507 )">
    <path d="M 0 38  L 0 0  L 30.5561052839888 0  L 48.3673065505631 0  L 150 0  L 150 38  L 87.947753809619 38  L 0 38  Z " fill-rule="nonzero" fill="#ffffff" stroke="none" fill-opacity="0" transform="matrix(1 0 0 1 94 1507 )" />
    <path d="M 0 38  L 0 0  L 30.5561052839888 0  L 48.3673065505631 0  L 150 0  L 150 38  L 87.947753809619 38  L 0 38  Z " stroke-width="2" stroke="#d7d7d7" fill="none" transform="matrix(1 0 0 1 94 1507 )" mask="url(#clip274)" />
  </g>
</svg>