<?xml version="1.0" encoding="utf-8"?>
<svg version="1.1" xmlns:xlink="http://www.w3.org/1999/xlink" width="125px" height="38px" xmlns="http://www.w3.org/2000/svg">
  <defs>
    <mask fill="white" id="clip275">
      <path d="M 0 38  L 0 0  L 25.4634210699907 0  L 40.3060887921359 0  L 91.5480299108443 0  L 125 0  L 125 38  L 91.5480299108443 38  L 73.2897948413491 38  L 0 38  Z " fill-rule="evenodd" />
    </mask>
  </defs>
  <g transform="matrix(1 0 0 1 -655 -1290 )">
    <path d="M 0 38  L 0 0  L 25.4634210699907 0  L 40.3060887921359 0  L 91.5480299108443 0  L 125 0  L 125 38  L 91.5480299108443 38  L 73.2897948413491 38  L 0 38  Z " fill-rule="nonzero" fill="#ffffff" stroke="none" fill-opacity="0" transform="matrix(1 0 0 1 655 1290 )" />
    <path d="M 0 38  L 0 0  L 25.4634210699907 0  L 40.3060887921359 0  L 91.5480299108443 0  L 125 0  L 125 38  L 91.5480299108443 38  L 73.2897948413491 38  L 0 38  Z " stroke-width="2" stroke="#d7d7d7" fill="none" transform="matrix(1 0 0 1 655 1290 )" mask="url(#clip275)" />
  </g>
</svg>