<?xml version="1.0" encoding="utf-8"?>
<svg version="1.1" xmlns:xlink="http://www.w3.org/1999/xlink" width="148px" height="38px" xmlns="http://www.w3.org/2000/svg">
  <defs>
    <mask fill="white" id="clip276">
      <path d="M 0 38  L 0 0  L 30.148690546869 0  L 47.722409129889 0  L 148 0  L 148 38  L 86.7751170921574 38  L 0 38  Z " fill-rule="evenodd" />
    </mask>
  </defs>
  <g transform="matrix(1 0 0 1 -643 -1507 )">
    <path d="M 0 38  L 0 0  L 30.148690546869 0  L 47.722409129889 0  L 148 0  L 148 38  L 86.7751170921574 38  L 0 38  Z " fill-rule="nonzero" fill="#ffffff" stroke="none" fill-opacity="0" transform="matrix(1 0 0 1 643 1507 )" />
    <path d="M 0 38  L 0 0  L 30.148690546869 0  L 47.722409129889 0  L 148 0  L 148 38  L 86.7751170921574 38  L 0 38  Z " stroke-width="2" stroke="#d7d7d7" fill="none" transform="matrix(1 0 0 1 643 1507 )" mask="url(#clip276)" />
  </g>
</svg>