<?xml version="1.0" encoding="utf-8"?>
<svg version="1.1" xmlns:xlink="http://www.w3.org/1999/xlink" width="136px" height="38px" xmlns="http://www.w3.org/2000/svg">
  <defs>
    <mask fill="white" id="clip277">
      <path d="M 0 38  L 0 0  L 27.7042021241498 0  L 43.8530246058439 0  L 99.6042565429986 0  L 136 0  L 136 38  L 99.6042565429986 38  L 79.7392967873879 38  L 0 38  Z " fill-rule="evenodd" />
    </mask>
  </defs>
  <g transform="matrix(1 0 0 1 -929 -1290 )">
    <path d="M 0 38  L 0 0  L 27.7042021241498 0  L 43.8530246058439 0  L 99.6042565429986 0  L 136 0  L 136 38  L 99.6042565429986 38  L 79.7392967873879 38  L 0 38  Z " fill-rule="nonzero" fill="#ffffff" stroke="none" fill-opacity="0" transform="matrix(1 0 0 1 929 1290 )" />
    <path d="M 0 38  L 0 0  L 27.7042021241498 0  L 43.8530246058439 0  L 99.6042565429986 0  L 136 0  L 136 38  L 99.6042565429986 38  L 79.7392967873879 38  L 0 38  Z " stroke-width="2" stroke="#d7d7d7" fill="none" transform="matrix(1 0 0 1 929 1290 )" mask="url(#clip277)" />
  </g>
</svg>