<?xml version="1.0" encoding="utf-8"?>
<svg version="1.1" xmlns:xlink="http://www.w3.org/1999/xlink" width="184px" height="38px" xmlns="http://www.w3.org/2000/svg">
  <defs>
    <mask fill="white" id="clip278">
      <path d="M 0 38  L 0 0  L 37.4821558150263 0  L 59.3305627020241 0  L 184 0  L 184 38  L 107.882578006466 38  L 0 38  Z " fill-rule="evenodd" />
    </mask>
  </defs>
  <g transform="matrix(1 0 0 1 -903 -1507 )">
    <path d="M 0 38  L 0 0  L 37.4821558150263 0  L 59.3305627020241 0  L 184 0  L 184 38  L 107.882578006466 38  L 0 38  Z " fill-rule="nonzero" fill="#ffffff" stroke="none" fill-opacity="0" transform="matrix(1 0 0 1 903 1507 )" />
    <path d="M 0 38  L 0 0  L 37.4821558150263 0  L 59.3305627020241 0  L 184 0  L 184 38  L 107.882578006466 38  L 0 38  Z " stroke-width="2" stroke="#d7d7d7" fill="none" transform="matrix(1 0 0 1 903 1507 )" mask="url(#clip278)" />
  </g>
</svg>