<?xml version="1.0" encoding="utf-8"?>
<svg version="1.1" xmlns:xlink="http://www.w3.org/1999/xlink" width="22px" height="22px" viewBox="55 399.5  22 22" xmlns="http://www.w3.org/2000/svg">
  <defs>
    <filter x="55px" y="399.5px" width="22px" height="22px" filterUnits="userSpaceOnUse" id="filter126">
      <feOffset dx="3" dy="3" in="SourceAlpha" result="shadowOffsetInner" />
      <feGaussianBlur stdDeviation="2.5" in="shadowOffsetInner" result="shadowGaussian" />
      <feComposite in2="shadowGaussian" operator="atop" in="SourceAlpha" result="shadowComposite" />
      <feColorMatrix type="matrix" values="0 0 0 0 0  0 0 0 0 0  0 0 0 0 0  0 0 0 0.349019607843137 0  " in="shadowComposite" />
    </filter>
    <g id="widget127">
      <path d="M 57.5 406.5  A 4.5 4.5 0 0 1 62 402 L 64 402  A 4.5 4.5 0 0 1 68.5 406.5 L 68.5 408.5  A 4.5 4.5 0 0 1 64 413 L 62 413  A 4.5 4.5 0 0 1 57.5 408.5 L 57.5 406.5  Z " fill-rule="nonzero" fill="#ffffff" stroke="none" />
      <path d="M 57.5 406.5  A 4.5 4.5 0 0 1 62 402 L 64 402  A 4.5 4.5 0 0 1 68.5 406.5 L 68.5 408.5  A 4.5 4.5 0 0 1 64 413 L 62 413  A 4.5 4.5 0 0 1 57.5 408.5 L 57.5 406.5  Z " stroke-width="1" stroke="#797979" fill="none" />
    </g>
  </defs>
  <use xlink:href="#widget127" filter="url(#filter126)" />
  <use xlink:href="#widget127" />
</svg>