<?xml version="1.0" encoding="utf-8"?>
<svg version="1.1" xmlns:xlink="http://www.w3.org/1999/xlink" width="339px" height="49px" xmlns="http://www.w3.org/2000/svg">
  <defs>
    <mask fill="white" id="clip270">
      <path d="M 0 49  L 0 0  L 69.0567979418147 0  L 109.310112804273 0  L 339 0  L 339 49  L 198.761923609739 49  L 0 49  Z " fill-rule="evenodd" />
    </mask>
  </defs>
  <g transform="matrix(1 0 0 1 -411 -1648 )">
    <path d="M 0 49  L 0 0  L 69.0567979418147 0  L 109.310112804273 0  L 339 0  L 339 49  L 198.761923609739 49  L 0 49  Z " fill-rule="nonzero" fill="#ffffff" stroke="none" fill-opacity="0" transform="matrix(1 0 0 1 411 1648 )" />
    <path d="M 0 49  L 0 0  L 69.0567979418147 0  L 109.310112804273 0  L 339 0  L 339 49  L 198.761923609739 49  L 0 49  Z " stroke-width="2" stroke="#d7d7d7" fill="none" transform="matrix(1 0 0 1 411 1648 )" mask="url(#clip270)" />
  </g>
</svg>